  0
SECTION
  2
HEADER
  9
$ACADVER
  1
AC1006
  9
$EXTMIN
 10
0.000000
 20
0.000000
 30
0.000000
  9
$EXTMAX
 10
180.000000
 20
154.000000
 30
0.000000
  0
ENDSEC
  0
SECTION
  2
ENTITIES
  0
POLYLINE
  8
0
 66
1
 70
1
  0
VERTEX
  8
0
 10
68.247134
 20
118.544683
 42
0.001192
  0
VERTEX
  8
0
 10
61.251701
 20
106.419075
 42
0.001924
  0
VERTEX
  8
0
 10
55.360096
 20
96.058128
 42
0.000297
  0
VERTEX
  8
0
 10
50.179907
 20
86.853343
 42
0.128704
  0
VERTEX
  8
0
 10
50.000000
 20
86.166004
 42
0.206477
  0
VERTEX
  8
0
 10
50.188129
 20
85.729859
 42
0.034368
  0
VERTEX
  8
0
 10
50.910017
 20
85.136937
 42
0.032801
  0
VERTEX
  8
0
 10
51.911508
 20
84.518312
 42
0.023769
  0
VERTEX
  8
0
 10
53.097931
 20
83.959436
 42
0.028349
  0
VERTEX
  8
0
 10
55.015296
 20
83.289775
 42
0.152475
  0
VERTEX
  8
0
 10
56.107074
 20
83.315201
 42
0.128163
  0
VERTEX
  8
0
 10
57.089839
 20
83.960259
 42
0.017744
  0
VERTEX
  8
0
 10
58.675264
 20
85.844319
 42
-0.017246
  0
VERTEX
  8
0
 10
59.750293
 20
87.124424
 42
-0.016348
  0
VERTEX
  8
0
 10
60.929688
 20
88.351164
 42
-0.016551
  0
VERTEX
  8
0
 10
62.043586
 20
89.366782
 42
-0.053747
  0
VERTEX
  8
0
 10
62.868185
 20
89.929455
 42
-0.081101
  0
VERTEX
  8
0
 10
64.145685
 20
90.366386
 42
-0.002983
  0
VERTEX
  8
0
 10
69.206982
 20
91.192182
 42
-0.005367
  0
VERTEX
  8
0
 10
75.227209
 20
92.071498
 42
-0.003736
  0
VERTEX
  8
0
 10
82.040852
 20
92.940333
 42
0.002984
  0
VERTEX
  8
0
 10
89.001925
 20
93.817324
 42
0.003685
  0
VERTEX
  8
0
 10
95.477808
 20
94.721084
 42
0.003042
  0
VERTEX
  8
0
 10
100.904576
 20
95.553010
 42
0.027068
  0
VERTEX
  8
0
 10
103.266580
 20
96.062191
 42
0.065802
  0
VERTEX
  8
0
 10
106.289432
 20
97.332612
 42
0.027336
  0
VERTEX
  8
0
 10
109.991944
 20
99.779248
 42
0.021392
  0
VERTEX
  8
0
 10
113.289504
 20
102.453335
 42
0.214881
  0
VERTEX
  8
0
 10
114.000000
 20
104.030230
 42
0.132761
  0
VERTEX
  8
0
 10
113.552082
 20
105.687426
 42
0.000314
  0
VERTEX
  8
0
 10
100.826861
 20
127.476473
 42
0.000184
  0
VERTEX
  8
0
 10
87.909395
 20
149.544176
 42
0.266248
  0
VERTEX
  8
0
 10
87.114061
 20
150.000000
 42
0.263229
  0
VERTEX
  8
0
 10
86.736068
 20
149.786188
 42
0.000241
  0
VERTEX
  8
0
 10
81.316237
 20
140.760001
 42
0.002273
  0
VERTEX
  8
0
 10
75.288013
 20
130.605239
 42
0.001381
  0
SEQEND
  0
POLYLINE
  8
0
 66
1
 70
1
  0
VERTEX
  8
0
 10
37.868341
 20
66.739828
 42
-0.001346
  0
VERTEX
  8
0
 10
34.995576
 20
61.734697
 42
-0.000330
  0
VERTEX
  8
0
 10
30.239593
 20
53.512428
 42
-0.000338
  0
VERTEX
  8
0
 10
24.777077
 20
44.097700
 42
-0.000337
  0
VERTEX
  8
0
 10
19.299010
 20
34.685458
 42
0.000778
  0
VERTEX
  8
0
 10
14.200185
 20
25.907042
 42
0.001269
  0
VERTEX
  8
0
 10
9.906584
 20
18.444772
 42
0.000129
  0
VERTEX
  8
0
 10
6.087031
 20
11.763234
 42
0.130499
  0
VERTEX
  8
0
 10
6.000000
 20
11.435458
 42
0.412583
  0
VERTEX
  8
0
 10
6.178132
 20
11.256330
 42
0.000034
  0
VERTEX
  8
0
 10
27.810937
 20
11.137258
 42
0.000917
  0
VERTEX
  8
0
 10
51.778778
 20
11.050900
 42
0.000550
  0
VERTEX
  8
0
 10
80.250000
 20
11.031803
 42
0.000541
  0
VERTEX
  8
0
 10
121.522005
 20
11.094177
 42
0.004213
  0
VERTEX
  8
0
 10
140.773637
 20
11.306355
 42
0.003863
  0
VERTEX
  8
0
 10
152.424464
 20
11.623023
 42
0.705652
  0
VERTEX
  8
0
 10
152.683556
 20
12.440631
 42
0.032709
  0
VERTEX
  8
0
 10
148.285933
 20
15.342360
 42
0.000559
  0
VERTEX
  8
0
 10
123.187245
 20
29.604726
 42
0.000156
  0
VERTEX
  8
0
 10
96.671658
 20
44.622080
 42
0.129467
  0
VERTEX
  8
0
 10
95.236601
 20
45.000000
 42
0.181759
  0
VERTEX
  8
0
 10
94.622039
 20
44.768963
 42
0.005969
  0
VERTEX
  8
0
 10
92.635660
 20
42.987294
 42
0.010707
  0
VERTEX
  8
0
 10
90.327568
 20
40.773824
 42
0.007164
  0
VERTEX
  8
0
 10
87.778648
 20
38.148235
 42
-0.005660
  0
VERTEX
  8
0
 10
83.921516
 20
34.151106
 42
-0.051887
  0
VERTEX
  8
0
 10
82.059569
 20
32.619941
 42
-0.148531
  0
VERTEX
  8
0
 10
80.742946
 20
32.227572
 42
-0.157815
  0
VERTEX
  8
0
 10
79.466390
 20
32.648235
 42
0.093841
  0
VERTEX
  8
0
 10
77.088195
 20
33.780178
 42
0.098530
  0
VERTEX
  8
0
 10
74.502919
 20
33.937238
 42
0.098602
  0
VERTEX
  8
0
 10
72.055963
 20
33.092751
 42
0.094124
  0
VERTEX
  8
0
 10
70.072580
 20
31.365141
 42
0.022783
  0
VERTEX
  8
0
 10
69.279285
 20
30.256191
 42
0.024340
  0
VERTEX
  8
0
 10
68.608820
 20
29.103262
 42
0.024866
  0
VERTEX
  8
0
 10
68.133627
 20
28.062560
 42
0.094937
  0
VERTEX
  8
0
 10
68.000000
 20
27.365141
 42
-0.072471
  0
VERTEX
  8
0
 10
67.923990
 20
26.843478
 42
-0.087335
  0
VERTEX
  8
0
 10
67.702779
 20
26.401010
 42
-0.100473
  0
VERTEX
  8
0
 10
67.374032
 20
26.105214
 42
-0.133896
  0
VERTEX
  8
0
 10
66.988182
 20
26.000000
 42
-0.434493
  0
VERTEX
  8
0
 10
66.236255
 20
26.805475
 42
-0.026593
  0
VERTEX
  8
0
 10
66.682214
 20
30.445357
 42
-0.030943
  0
VERTEX
  8
0
 10
67.705143
 20
34.681300
 42
-0.037100
  0
VERTEX
  8
0
 10
69.199397
 20
38.500000
 42
-0.041820
  0
VERTEX
  8
0
 10
70.291381
 20
40.360555
 42
-0.017140
  0
VERTEX
  8
0
 10
72.061704
 20
42.696039
 42
-0.016817
  0
VERTEX
  8
0
 10
74.144236
 20
45.087220
 42
-0.020666
  0
VERTEX
  8
0
 10
76.249812
 20
47.167366
 42
0.022947
  0
VERTEX
  8
0
 10
79.584423
 20
50.491881
 42
0.174343
  0
VERTEX
  8
0
 10
80.426409
 20
52.506854
 42
0.241602
  0
VERTEX
  8
0
 10
79.656603
 20
54.214477
 42
0.045471
  0
VERTEX
  8
0
 10
76.705070
 20
56.157842
 42
0.130586
  0
VERTEX
  8
0
 10
75.114802
 20
56.533035
 42
0.217659
  0
VERTEX
  8
0
 10
73.902250
 20
55.937342
 42
0.159715
  0
VERTEX
  8
0
 10
73.314734
 20
54.417033
 42
0.070851
  0
VERTEX
  8
0
 10
73.509100
 20
52.250000
 42
-0.042583
  0
VERTEX
  8
0
 10
73.635927
 20
51.386327
 42
-0.072229
  0
VERTEX
  8
0
 10
73.575089
 20
50.659591
 42
-0.107439
  0
VERTEX
  8
0
 10
73.346733
 20
50.176771
 42
-0.232813
  0
VERTEX
  8
0
 10
72.987667
 20
50.000000
 42
-0.226112
  0
VERTEX
  8
0
 10
71.926068
 20
50.505949
 42
-0.128663
  0
VERTEX
  8
0
 10
71.326793
 20
51.828716
 42
-0.092661
  0
VERTEX
  8
0
 10
71.355141
 20
53.677843
 42
-0.072947
  0
VERTEX
  8
0
 10
72.035297
 20
55.565954
 42
0.046539
  0
VERTEX
  8
0
 10
72.826167
 20
57.444990
 42
0.230209
  0
VERTEX
  8
0
 10
72.662570
 20
58.548657
 42
0.357403
  0
VERTEX
  8
0
 10
71.829781
 20
58.792277
 42
0.072831
  0
VERTEX
  8
0
 10
70.417810
 20
57.931788
 42
0.098877
  0
VERTEX
  8
0
 10
69.655716
 20
56.991222
 42
0.076726
  0
VERTEX
  8
0
 10
69.226938
 20
55.742243
 42
0.049625
  0
VERTEX
  8
0
 10
69.087313
 20
53.964409
 42
0.015488
  0
VERTEX
  8
0
 10
69.225916
 20
51.289287
 42
-0.018050
  0
VERTEX
  8
0
 10
69.394348
 20
47.680829
 42
-0.173954
  0
VERTEX
  8
0
 10
68.898913
 20
46.252665
 42
-0.499591
  0
VERTEX
  8
0
 10
68.070215
 20
46.281032
 42
-0.045635
  0
VERTEX
  8
0
 10
66.875748
 20
48.373359
 42
-0.067290
  0
VERTEX
  8
0
 10
66.446365
 20
49.795887
 42
-0.075422
  0
VERTEX
  8
0
 10
66.434628
 20
51.225353
 42
-0.052445
  0
VERTEX
  8
0
 10
66.875927
 20
52.974458
 42
-0.016135
  0
VERTEX
  8
0
 10
67.897186
 20
55.500477
 42
0.003429
  0
VERTEX
  8
0
 10
69.598812
 20
59.419721
 42
0.091917
  0
VERTEX
  8
0
 10
69.845103
 20
60.524027
 42
0.434247
  0
VERTEX
  8
0
 10
69.441808
 20
60.929070
 42
0.056055
  0
VERTEX
  8
0
 10
68.086251
 20
60.732806
 42
-0.068696
  0
VERTEX
  8
0
 10
67.209829
 20
60.628371
 42
-0.126459
  0
VERTEX
  8
0
 10
66.522066
 20
60.818831
 42
-0.127941
  0
VERTEX
  8
0
 10
66.016577
 20
61.315145
 42
-0.071190
  0
VERTEX
  8
0
 10
65.679871
 20
62.116175
 42
0.150303
  0
VERTEX
  8
0
 10
64.963704
 20
63.273467
 42
0.118967
  0
VERTEX
  8
0
 10
63.653036
 20
63.958240
 42
0.175959
  0
VERTEX
  8
0
 10
62.503203
 20
63.838554
 42
0.287210
  0
VERTEX
  8
0
 10
62.000000
 20
63.034796
 42
-0.136322
  0
VERTEX
  8
0
 10
61.846323
 20
62.481616
 42
-0.014586
  0
VERTEX
  8
0
 10
61.119094
 20
61.349825
 42
-0.017101
  0
VERTEX
  8
0
 10
60.149647
 20
60.032652
 42
-0.012963
  0
VERTEX
  8
0
 10
59.001172
 20
58.654116
 42
0.014824
  0
VERTEX
  8
0
 10
57.137869
 20
56.400566
 42
0.118799
  0
VERTEX
  8
0
 10
56.586872
 20
55.182315
 42
0.128319
  0
VERTEX
  8
0
 10
56.673745
 20
53.887281
 42
0.018391
  0
VERTEX
  8
0
 10
57.615087
 20
51.378800
 42
-0.023010
  0
VERTEX
  8
0
 10
58.401578
 20
49.222641
 42
-0.061836
  0
VERTEX
  8
0
 10
58.693741
 20
47.619270
 42
-0.068182
  0
VERTEX
  8
0
 10
58.571678
 20
46.085710
 42
-0.032860
  0
VERTEX
  8
0
 10
58.023419
 20
44.188219
 42
0.022902
  0
VERTEX
  8
0
 10
57.434836
 20
42.293407
 42
0.092467
  0
VERTEX
  8
0
 10
57.349357
 20
41.091068
 42
0.113082
  0
VERTEX
  8
0
 10
57.709753
 20
40.067822
 42
0.042956
  0
VERTEX
  8
0
 10
58.630965
 20
38.855285
 42
-0.134916
  0
VERTEX
  8
0
 10
60.256053
 20
35.634991
 42
-0.038265
  0
VERTEX
  8
0
 10
60.948867
 20
30.014565
 42
-0.037159
  0
VERTEX
  8
0
 10
60.791954
 20
24.437564
 42
-0.172425
  0
VERTEX
  8
0
 10
59.429260
 20
21.572117
 42
-0.053186
  0
VERTEX
  8
0
 10
58.343384
 20
20.695581
 42
-0.367147
  0
VERTEX
  8
0
 10
57.714974
 20
20.778301
 42
-0.116025
  0
VERTEX
  8
0
 10
57.208237
 20
21.694604
 42
-0.005901
  0
VERTEX
  8
0
 10
56.319540
 20
25.004077
 42
0.007823
  0
VERTEX
  8
0
 10
55.148305
 20
29.299704
 42
0.078400
  0
VERTEX
  8
0
 10
54.361056
 20
30.979270
 42
0.172499
  0
VERTEX
  8
0
 10
53.321423
 20
31.744260
 42
0.073314
  0
VERTEX
  8
0
 10
51.586656
 20
32.000000
 42
-0.134810
  0
VERTEX
  8
0
 10
50.274926
 20
32.360215
 42
-0.124910
  0
VERTEX
  8
0
 10
49.285957
 20
33.347489
 42
-0.053754
  0
VERTEX
  8
0
 10
48.348699
 20
35.389422
 42
-0.007825
  0
VERTEX
  8
0
 10
46.965039
 20
39.750000
 42
-0.019430
  0
VERTEX
  8
0
 10
44.796938
 20
48.144359
 42
-0.053152
  0
VERTEX
  8
0
 10
44.139163
 20
54.228302
 42
-0.067504
  0
VERTEX
  8
0
 10
44.836832
 20
59.430709
 42
-0.049883
  0
VERTEX
  8
0
 10
46.927525
 20
64.856427
 42
0.012977
  0
VERTEX
  8
0
 10
48.087644
 20
67.310944
 42
0.018896
  0
VERTEX
  8
0
 10
48.970506
 20
69.535624
 42
0.014740
  0
VERTEX
  8
0
 10
49.562447
 20
71.380237
 42
0.211736
  0
VERTEX
  8
0
 10
49.471044
 20
72.046852
 42
0.082826
  0
VERTEX
  8
0
 10
49.063221
 20
72.512917
 42
0.017806
  0
VERTEX
  8
0
 10
48.206543
 20
73.165606
 42
0.018132
  0
VERTEX
  8
0
 10
47.147431
 20
73.858285
 42
0.016423
  0
VERTEX
  8
0
 10
46.005919
 20
74.496939
 42
0.000000
  0
VERTEX
  8
0
 10
43.138662
 20
75.979656
 42
0.000000
  0
SEQEND
  0
POLYLINE
  8
0
 66
1
 70
1
  0
VERTEX
  8
0
 10
63.984216
 20
52.961894
 42
-0.052968
  0
VERTEX
  8
0
 10
63.030770
 20
51.210532
 42
-0.225974
  0
VERTEX
  8
0
 10
62.026228
 20
50.632777
 42
-0.342481
  0
VERTEX
  8
0
 10
61.264405
 20
51.134585
 42
-0.082289
  0
VERTEX
  8
0
 10
61.000000
 20
52.730276
 42
-0.125552
  0
VERTEX
  8
0
 10
61.423232
 20
54.389194
 42
-0.057030
  0
VERTEX
  8
0
 10
62.722050
 20
56.233614
 42
-0.083843
  0
VERTEX
  8
0
 10
64.073302
 20
57.317483
 42
-0.470104
  0
VERTEX
  8
0
 10
64.824696
 20
57.025911
 42
-0.106533
  0
VERTEX
  8
0
 10
64.893090
 20
56.403717
 42
-0.025294
  0
VERTEX
  8
0
 10
64.732842
 20
55.366995
 42
-0.024890
  0
VERTEX
  8
0
 10
64.422162
 20
54.168812
 42
-0.022309
  0
SEQEND
  0
POLYLINE
  8
0
 66
1
 70
1
  0
VERTEX
  8
0
 10
66.021814
 20
39.557376
 42
-0.029604
  0
VERTEX
  8
0
 10
65.581604
 20
38.578236
 42
-0.039290
  0
VERTEX
  8
0
 10
65.062834
 20
37.751229
 42
-0.043906
  0
VERTEX
  8
0
 10
64.544073
 20
37.167498
 42
-0.191414
  0
VERTEX
  8
0
 10
64.122576
 20
37.000000
 42
-0.289016
  0
VERTEX
  8
0
 10
63.070467
 20
37.663581
 42
-0.045837
  0
VERTEX
  8
0
 10
62.185308
 20
40.060251
 42
-0.045102
  0
VERTEX
  8
0
 10
61.669826
 20
43.026995
 42
-0.056967
  0
VERTEX
  8
0
 10
61.758649
 20
45.808929
 42
0.000000
  0
VERTEX
  8
0
 10
62.242715
 20
49.107082
 42
0.000000
  0
VERTEX
  8
0
 10
64.618421
 20
45.610916
 42
-0.022285
  0
VERTEX
  8
0
 10
65.795348
 20
43.701103
 42
-0.070093
  0
VERTEX
  8
0
 10
66.335390
 20
42.299462
 42
-0.091201
  0
VERTEX
  8
0
 10
66.394257
 20
41.018078
 42
-0.056894
  0
SEQEND
  0
POLYLINE
  8
0
 66
1
 70
1
  0
VERTEX
  8
0
 10
94.461599
 20
33.615517
 42
-0.036204
  0
VERTEX
  8
0
 10
94.817457
 20
32.316158
 42
-0.054854
  0
VERTEX
  8
0
 10
94.917258
 20
31.149584
 42
-0.062664
  0
VERTEX
  8
0
 10
94.761069
 20
30.112052
 42
-0.071975
  0
VERTEX
  8
0
 10
94.354416
 20
29.197231
 42
-0.089010
  0
VERTEX
  8
0
 10
93.004194
 20
27.717124
 42
-0.210550
  0
VERTEX
  8
0
 10
91.584373
 20
27.371677
 42
-0.167108
  0
VERTEX
  8
0
 10
90.126798
 20
28.182259
 42
-0.054343
  0
VERTEX
  8
0
 10
88.667814
 20
30.210718
 42
-0.012789
  0
VERTEX
  8
0
 10
87.544406
 20
32.320059
 42
-0.136633
  0
VERTEX
  8
0
 10
87.360716
 20
33.263910
 42
-0.179054
  0
VERTEX
  8
0
 10
87.724692
 20
34.049802
 42
-0.025520
  0
VERTEX
  8
0
 10
89.069194
 20
35.257114
 42
-0.054051
  0
VERTEX
  8
0
 10
90.948965
 20
36.469056
 42
-0.192366
  0
VERTEX
  8
0
 10
92.349500
 20
36.587790
 42
-0.185914
  0
VERTEX
  8
0
 10
93.477497
 20
35.706649
 42
-0.050124
  0
SEQEND
  0
POLYLINE
  8
0
 66
1
 70
1
  0
VERTEX
  8
0
 10
79.229443
 20
28.067439
 42
-0.094695
  0
VERTEX
  8
0
 10
78.322119
 20
25.130103
 42
-0.054570
  0
VERTEX
  8
0
 10
76.232721
 20
22.059298
 42
-0.055958
  0
VERTEX
  8
0
 10
73.738218
 20
19.723705
 42
-0.198098
  0
VERTEX
  8
0
 10
71.655505
 20
19.192832
 42
-0.071891
  0
VERTEX
  8
0
 10
70.576772
 20
19.508975
 42
-0.159204
  0
VERTEX
  8
0
 10
69.953381
 20
20.083214
 42
-0.112533
  0
VERTEX
  8
0
 10
69.664133
 20
21.064907
 42
-0.027054
  0
VERTEX
  8
0
 10
69.649928
 20
22.772798
 42
-0.061243
  0
VERTEX
  8
0
 10
70.241916
 20
26.260952
 42
-0.100768
  0
VERTEX
  8
0
 10
71.648600
 20
28.889953
 42
-0.122752
  0
VERTEX
  8
0
 10
73.739675
 20
30.428570
 42
-0.122256
  0
VERTEX
  8
0
 10
76.311559
 20
30.808767
 42
-0.026067
  0
VERTEX
  8
0
 10
78.038011
 20
30.550202
 42
-0.139246
  0
VERTEX
  8
0
 10
78.875760
 20
30.116722
 42
-0.182266
  0
VERTEX
  8
0
 10
79.239466
 20
29.375210
 42
-0.051598
  0
SEQEND
  0
POLYLINE
  8
0
 66
1
 70
1
  0
VERTEX
  8
0
 10
54.027181
 20
25.899058
 42
-0.011406
  0
VERTEX
  8
0
 10
54.419617
 20
24.296966
 42
-0.017001
  0
VERTEX
  8
0
 10
54.682749
 20
22.878446
 42
-0.012109
  0
VERTEX
  8
0
 10
54.829227
 20
21.714568
 42
-0.225294
  0
VERTEX
  8
0
 10
54.708226
 20
21.374892
 42
-0.410995
  0
VERTEX
  8
0
 10
53.980202
 20
21.370888
 42
-0.062568
  0
VERTEX
  8
0
 10
52.980961
 20
22.628465
 42
-0.047131
  0
VERTEX
  8
0
 10
52.018186
 20
24.610124
 42
-0.040189
  0
VERTEX
  8
0
 10
51.380938
 20
26.845308
 42
-0.048928
  0
VERTEX
  8
0
 10
51.119840
 20
29.457657
 42
-0.519356
  0
VERTEX
  8
0
 10
51.856424
 20
29.977542
 42
-0.210599
  0
VERTEX
  8
0
 10
53.001716
 20
28.892163
 42
-0.033534
  0
SEQEND
  0
POLYLINE
  8
0
 66
1
 70
1
  0
VERTEX
  8
0
 10
88.000000
 20
25.811814
 42
-0.071019
  0
VERTEX
  8
0
 10
87.694204
 20
23.669751
 42
-0.077849
  0
VERTEX
  8
0
 10
86.802797
 20
21.771277
 42
-0.090532
  0
VERTEX
  8
0
 10
85.518262
 20
20.459584
 42
-0.155046
  0
VERTEX
  8
0
 10
84.071805
 20
20.000000
 42
-0.162228
  0
VERTEX
  8
0
 10
82.443468
 20
20.542604
 42
-0.197818
  0
VERTEX
  8
0
 10
81.628230
 20
21.912250
 42
-0.123085
  0
VERTEX
  8
0
 10
81.839407
 20
24.046298
 42
-0.052549
  0
VERTEX
  8
0
 10
83.092048
 20
26.648937
 42
-0.017409
  0
VERTEX
  8
0
 10
84.247730
 20
28.381013
 42
-0.093978
  0
VERTEX
  8
0
 10
85.064107
 20
29.157232
 42
-0.195460
  0
VERTEX
  8
0
 10
85.802836
 20
29.296799
 42
-0.123979
  0
VERTEX
  8
0
 10
86.603928
 20
28.913748
 42
-0.069348
  0
VERTEX
  8
0
 10
87.138490
 20
28.327832
 42
-0.044584
  0
VERTEX
  8
0
 10
87.589904
 20
27.524617
 42
-0.044120
  0
VERTEX
  8
0
 10
87.897281
 20
26.640872
 42
-0.061713
  0
SEQEND
  0
POLYLINE
  8
0
 66
1
 70
1
  0
VERTEX
  8
0
 10
125.842261
 20
74.378316
 42
0.040721
  0
VERTEX
  8
0
 10
124.167276
 20
73.517082
 42
0.049994
  0
VERTEX
  8
0
 10
122.774468
 20
72.444518
 42
0.052457
  0
VERTEX
  8
0
 10
121.675311
 20
71.165340
 42
0.053133
  0
VERTEX
  8
0
 10
120.871887
 20
69.690708
 42
-0.058907
  0
VERTEX
  8
0
 10
119.969916
 20
68.079625
 42
-0.014201
  0
VERTEX
  8
0
 10
118.100199
 20
65.652814
 42
-0.014383
  0
VERTEX
  8
0
 10
115.779882
 20
62.972986
 42
-0.013830
  0
VERTEX
  8
0
 10
113.279626
 20
60.394744
 42
0.006814
  0
VERTEX
  8
0
 10
110.874056
 20
57.982786
 42
0.010232
  0
VERTEX
  8
0
 10
108.848039
 20
55.807922
 42
0.005500
  0
VERTEX
  8
0
 10
107.211530
 20
53.936447
 42
0.182126
  0
VERTEX
  8
0
 10
107.011569
 20
53.383880
 42
0.258840
  0
VERTEX
  8
0
 10
107.315634
 20
52.852389
 42
0.000627
  0
VERTEX
  8
0
 10
115.124795
 20
48.135942
 42
0.003666
  0
VERTEX
  8
0
 10
124.035400
 20
42.858157
 42
0.002246
  0
VERTEX
  8
0
 10
134.614815
 20
36.759754
 42
0.003113
  0
VERTEX
  8
0
 10
145.156679
 20
30.832614
 42
0.005526
  0
VERTEX
  8
0
 10
153.926384
 20
26.099386
 42
0.001938
  0
VERTEX
  8
0
 10
161.276311
 20
22.273005
 42
0.689037
  0
VERTEX
  8
0
 10
161.610567
 20
22.572463
 42
0.041604
  0
VERTEX
  8
0
 10
159.859528
 20
26.201400
 42
0.000439
  0
VERTEX
  8
0
 10
145.621238
 20
50.302718
 42
0.000083
  0
VERTEX
  8
0
 10
130.613867
 20
75.645475
 42
0.291835
  0
VERTEX
  8
0
 10
130.014540
 20
75.948472
 42
0.062073
  0
VERTEX
  8
0
 10
129.671321
 20
75.870352
 42
0.003038
  0
VERTEX
  8
0
 10
128.576685
 20
75.465983
 42
0.004890
  0
VERTEX
  8
0
 10
127.280919
 20
74.963825
 42
0.003507
  0
SEQEND
  0
ENDSEC
  0
EOF
