  0
SECTION
  2
HEADER
  9
$ACADVER
  1
AC1006
  9
$EXTMIN
 10
0.000000
 20
0.000000
 30
0.000000
  9
$EXTMAX
 10
800.000000
 20
220.000000
 30
0.000000
  0
ENDSEC
  0
SECTION
  2
ENTITIES
  0
POLYLINE
  8
0
 66
1
 70
1
  0
VERTEX
  8
0
 10
566.830856
 20
219.045145
 42
0.027602
  0
VERTEX
  8
0
 10
555.732421
 20
216.369688
 42
0.042965
  0
VERTEX
  8
0
 10
546.590821
 20
212.743620
 42
0.045535
  0
VERTEX
  8
0
 10
538.589921
 20
207.788507
 42
0.036451
  0
VERTEX
  8
0
 10
530.954923
 20
201.113932
 42
0.014386
  0
VERTEX
  8
0
 10
526.846485
 20
196.710682
 42
0.027938
  0
VERTEX
  8
0
 10
523.874917
 20
192.930064
 42
0.026769
  0
VERTEX
  8
0
 10
521.264695
 20
188.736573
 42
0.012104
  0
VERTEX
  8
0
 10
518.280058
 20
182.990005
 42
0.018623
  0
VERTEX
  8
0
 10
513.536890
 20
172.299346
 42
0.043882
  0
VERTEX
  8
0
 10
511.022171
 20
163.952555
 42
0.039418
  0
VERTEX
  8
0
 10
509.858046
 20
154.771733
 42
0.012589
  0
VERTEX
  8
0
 10
509.552889
 20
141.000000
 42
0.003717
  0
VERTEX
  8
0
 10
509.664517
 20
130.325034
 42
0.022850
  0
VERTEX
  8
0
 10
510.013915
 20
124.837309
 42
0.035267
  0
VERTEX
  8
0
 10
510.808055
 20
120.467722
 42
0.016974
  0
VERTEX
  8
0
 10
512.405401
 20
115.000000
 42
0.037708
  0
VERTEX
  8
0
 10
518.273323
 20
100.867927
 42
0.044579
  0
VERTEX
  8
0
 10
525.933476
 20
88.596339
 42
0.048502
  0
VERTEX
  8
0
 10
534.948715
 20
78.803230
 42
0.066133
  0
VERTEX
  8
0
 10
544.856474
 20
72.057931
 42
0.069389
  0
VERTEX
  8
0
 10
563.332259
 20
65.789290
 42
0.058826
  0
VERTEX
  8
0
 10
583.911403
 20
64.325096
 42
0.059496
  0
VERTEX
  8
0
 10
604.022966
 20
67.680950
 42
0.075074
  0
VERTEX
  8
0
 10
621.119106
 20
75.605707
 42
0.071480
  0
VERTEX
  8
0
 10
631.963064
 20
85.244756
 42
0.052897
  0
VERTEX
  8
0
 10
640.978372
 20
98.543514
 42
0.049351
  0
VERTEX
  8
0
 10
647.546967
 20
114.458724
 42
0.044925
  0
VERTEX
  8
0
 10
651.129718
 20
131.863259
 42
0.053752
  0
VERTEX
  8
0
 10
651.241153
 20
150.993618
 42
0.050232
  0
VERTEX
  8
0
 10
647.315397
 20
170.167394
 42
0.051764
  0
VERTEX
  8
0
 10
639.830036
 20
187.590963
 42
0.066653
  0
VERTEX
  8
0
 10
629.400445
 20
201.531542
 42
0.042311
  0
VERTEX
  8
0
 10
623.640928
 20
206.490047
 42
0.030041
  0
VERTEX
  8
0
 10
616.444082
 20
211.064160
 42
0.029288
  0
VERTEX
  8
0
 10
608.503431
 20
214.875894
 42
0.033294
  0
VERTEX
  8
0
 10
600.500000
 20
217.549662
 42
0.040406
  0
VERTEX
  8
0
 10
593.789143
 20
218.736818
 42
0.012484
  0
VERTEX
  8
0
 10
583.542426
 20
219.448620
 42
0.012295
  0
VERTEX
  8
0
 10
573.321361
 20
219.651010
 42
0.044172
  0
SEQEND
  0
POLYLINE
  8
0
 66
1
 70
1
  0
VERTEX
  8
0
 10
597.218065
 20
189.782998
 42
-0.086034
  0
VERTEX
  8
0
 10
607.882574
 20
182.414292
 42
-0.079604
  0
VERTEX
  8
0
 10
615.785149
 20
171.703298
 42
-0.070797
  0
VERTEX
  8
0
 10
620.593605
 20
157.909196
 42
-0.049572
  0
VERTEX
  8
0
 10
622.157104
 20
141.500000
 42
-0.049373
  0
VERTEX
  8
0
 10
620.506346
 20
125.488383
 42
-0.070117
  0
VERTEX
  8
0
 10
615.720873
 20
112.020294
 42
-0.078625
  0
VERTEX
  8
0
 10
607.946202
 20
101.541787
 42
-0.084903
  0
VERTEX
  8
0
 10
597.500000
 20
94.300750
 42
-0.022505
  0
VERTEX
  8
0
 10
593.714085
 20
92.736883
 42
-0.047088
  0
VERTEX
  8
0
 10
590.630727
 20
91.940971
 42
-0.033121
  0
VERTEX
  8
0
 10
586.831719
 20
91.589351
 42
-0.006519
  0
VERTEX
  8
0
 10
579.978973
 20
91.500000
 42
-0.006288
  0
VERTEX
  8
0
 10
572.839297
 20
91.589786
 42
-0.038092
  0
VERTEX
  8
0
 10
569.159964
 20
91.963772
 42
-0.052119
  0
VERTEX
  8
0
 10
566.085948
 20
92.853008
 42
-0.017936
  0
VERTEX
  8
0
 10
561.856395
 20
94.749933
 42
-0.085979
  0
VERTEX
  8
0
 10
551.898831
 20
101.994965
 42
-0.074074
  0
VERTEX
  8
0
 10
544.345854
 20
112.521713
 42
-0.066919
  0
VERTEX
  8
0
 10
539.630823
 20
125.814542
 42
-0.051284
  0
VERTEX
  8
0
 10
538.017364
 20
141.162032
 42
-0.046545
  0
VERTEX
  8
0
 10
539.386977
 20
156.211718
 42
-0.058742
  0
VERTEX
  8
0
 10
543.530919
 20
169.554602
 42
-0.065838
  0
VERTEX
  8
0
 10
550.115292
 20
180.294830
 42
-0.090056
  0
VERTEX
  8
0
 10
558.702395
 20
187.671480
 42
-0.030067
  0
VERTEX
  8
0
 10
563.987415
 20
190.355923
 42
-0.048225
  0
VERTEX
  8
0
 10
568.794670
 20
191.914310
 42
-0.042740
  0
VERTEX
  8
0
 10
574.210852
 20
192.631674
 42
-0.018419
  0
VERTEX
  8
0
 10
581.500000
 20
192.700333
 42
-0.009529
  0
VERTEX
  8
0
 10
587.006463
 20
192.444251
 42
-0.029505
  0
VERTEX
  8
0
 10
590.697649
 20
191.982225
 42
-0.037557
  0
VERTEX
  8
0
 10
593.798768
 20
191.161926
 42
-0.024833
  0
SEQEND
  0
POLYLINE
  8
0
 66
1
 70
1
  0
VERTEX
  8
0
 10
147.000000
 20
141.000000
 42
0.000000
  0
VERTEX
  8
0
 10
147.000000
 20
66.000000
 42
0.000000
  0
VERTEX
  8
0
 10
162.000000
 20
66.000000
 42
0.000000
  0
VERTEX
  8
0
 10
177.000000
 20
66.000000
 42
0.000000
  0
VERTEX
  8
0
 10
177.000000
 20
115.333333
 42
-0.001167
  0
VERTEX
  8
0
 10
177.044256
 20
134.292229
 42
-0.001910
  0
VERTEX
  8
0
 10
177.180627
 20
150.355627
 42
-0.000208
  0
VERTEX
  8
0
 10
177.362993
 20
164.684536
 42
-0.195499
  0
VERTEX
  8
0
 10
177.614901
 20
165.281567
 42
-0.462861
  0
VERTEX
  8
0
 10
178.033266
 20
165.247354
 42
-0.003923
  0
VERTEX
  8
0
 10
180.145110
 20
162.253638
 42
-0.009788
  0
VERTEX
  8
0
 10
182.584509
 20
158.586081
 42
-0.005750
  0
VERTEX
  8
0
 10
185.364901
 20
154.110246
 42
0.001248
  0
VERTEX
  8
0
 10
189.497493
 20
147.322066
 42
0.000219
  0
VERTEX
  8
0
 10
197.307190
 20
134.578229
 42
0.000238
  0
VERTEX
  8
0
 10
206.479756
 20
119.641112
 42
0.000213
  0
VERTEX
  8
0
 10
216.000000
 20
104.169139
 42
0.000000
  0
VERTEX
  8
0
 10
239.500000
 20
66.014253
 42
0.000000
  0
VERTEX
  8
0
 10
255.750000
 20
66.007127
 42
0.000000
  0
VERTEX
  8
0
 10
272.000000
 20
66.000000
 42
0.000000
  0
VERTEX
  8
0
 10
272.000000
 20
141.000000
 42
0.000000
  0
VERTEX
  8
0
 10
272.000000
 20
216.000000
 42
0.000000
  0
VERTEX
  8
0
 10
257.000000
 20
216.000000
 42
0.000000
  0
VERTEX
  8
0
 10
242.000000
 20
216.000000
 42
0.000000
  0
VERTEX
  8
0
 10
242.000000
 20
166.000000
 42
-0.001406
  0
VERTEX
  8
0
 10
241.946108
 20
146.829069
 42
-0.002346
  0
VERTEX
  8
0
 10
241.779687
 20
130.694286
 42
-0.000222
  0
VERTEX
  8
0
 10
241.557538
 20
116.316607
 42
-0.418584
  0
VERTEX
  8
0
 10
241.250000
 20
116.023102
 42
-0.241129
  0
VERTEX
  8
0
 10
240.793763
 20
116.274730
 42
-0.001102
  0
VERTEX
  8
0
 10
237.652268
 20
120.952944
 42
-0.004782
  0
VERTEX
  8
0
 10
234.113723
 20
126.358819
 42
-0.002962
  0
VERTEX
  8
0
 10
230.055593
 20
132.773102
 42
0.000567
  0
VERTEX
  8
0
 10
224.645842
 20
141.415091
 42
0.000177
  0
VERTEX
  8
0
 10
216.519672
 20
154.353661
 42
0.000177
  0
VERTEX
  8
0
 10
207.436450
 20
168.793306
 42
0.000196
  0
VERTEX
  8
0
 10
198.642477
 20
182.750000
 42
0.000000
  0
VERTEX
  8
0
 10
177.673768
 20
216.000000
 42
0.000000
  0
VERTEX
  8
0
 10
162.336884
 20
216.000000
 42
0.000000
  0
VERTEX
  8
0
 10
147.000000
 20
216.000000
 42
0.000000
  0
SEQEND
  0
POLYLINE
  8
0
 66
1
 70
1
  0
VERTEX
  8
0
 10
425.000000
 20
141.000000
 42
0.000000
  0
VERTEX
  8
0
 10
425.000000
 20
66.000000
 42
0.000000
  0
VERTEX
  8
0
 10
466.500000
 20
66.000000
 42
0.000000
  0
VERTEX
  8
0
 10
508.000000
 20
66.000000
 42
0.000000
  0
VERTEX
  8
0
 10
508.000000
 20
79.000000
 42
0.000000
  0
VERTEX
  8
0
 10
508.000000
 20
92.000000
 42
0.000000
  0
VERTEX
  8
0
 10
481.500000
 20
92.000000
 42
0.000000
  0
VERTEX
  8
0
 10
455.000000
 20
92.000000
 42
0.000000
  0
VERTEX
  8
0
 10
455.000000
 20
154.000000
 42
0.000000
  0
VERTEX
  8
0
 10
455.000000
 20
216.000000
 42
0.000000
  0
VERTEX
  8
0
 10
440.000000
 20
216.000000
 42
0.000000
  0
VERTEX
  8
0
 10
425.000000
 20
216.000000
 42
0.000000
  0
SEQEND
  0
POLYLINE
  8
0
 66
1
 70
1
  0
VERTEX
  8
0
 10
645.000000
 20
215.506656
 42
0.140017
  0
VERTEX
  8
0
 10
645.105711
 20
215.136564
 42
0.000070
  0
VERTEX
  8
0
 10
651.609375
 20
204.684015
 42
0.000961
  0
VERTEX
  8
0
 10
658.873175
 20
193.063273
 42
0.000585
  0
VERTEX
  8
0
 10
667.500000
 20
179.356403
 42
-0.000793
  0
VERTEX
  8
0
 10
676.126540
 20
165.637335
 42
-0.001296
  0
VERTEX
  8
0
 10
683.390625
 20
153.977228
 42
-0.000127
  0
VERTEX
  8
0
 10
689.858087
 20
143.529720
 42
-0.139405
  0
VERTEX
  8
0
 10
690.000000
 20
143.030616
 42
-0.139505
  0
VERTEX
  8
0
 10
689.857801
 20
142.530881
 42
-0.000112
  0
VERTEX
  8
0
 10
682.971637
 20
131.416029
 42
-0.001219
  0
VERTEX
  8
0
 10
675.247129
 20
119.021882
 42
-0.000745
  0
VERTEX
  8
0
 10
666.073659
 20
104.430870
 42
0.000000
  0
VERTEX
  8
0
 10
642.147317
 20
66.500000
 42
0.000000
  0
VERTEX
  8
0
 10
660.319883
 20
66.226489
 42
0.002319
  0
VERTEX
  8
0
 10
671.056969
 20
66.114691
 42
0.020655
  0
VERTEX
  8
0
 10
675.778143
 20
66.282507
 42
0.049888
  0
VERTEX
  8
0
 10
678.389857
 20
66.748397
 42
0.165970
  0
VERTEX
  8
0
 10
679.803813
 20
67.726489
 42
0.016804
  0
VERTEX
  8
0
 10
680.715279
 20
69.049984
 42
0.000400
  0
VERTEX
  8
0
 10
684.752110
 20
75.366268
 42
0.000879
  0
VERTEX
  8
0
 10
689.465818
 20
82.783370
 42
0.000597
  0
VERTEX
  8
0
 10
694.807588
 20
91.243785
 42
-0.001582
  0
VERTEX
  8
0
 10
700.093430
 20
99.579174
 42
-0.002601
  0
VERTEX
  8
0
 10
704.624729
 20
106.594247
 42
-0.000314
  0
VERTEX
  8
0
 10
708.689485
 20
112.807278
 42
-0.263945
  0
VERTEX
  8
0
 10
709.000000
 20
112.966851
 42
-0.246568
  0
VERTEX
  8
0
 10
709.701238
 20
112.560766
 42
-0.000041
  0
VERTEX
  8
0
 10
734.152379
 20
73.760373
 42
-0.000172
  0
VERTEX
  8
0
 10
757.877355
 20
36.076720
 42
-0.048823
  0
VERTEX
  8
0
 10
759.543623
 20
32.746916
 42
-0.524055
  0
VERTEX
  8
0
 10
758.711493
 20
31.527992
 42
-0.000409
  0
VERTEX
  8
0
 10
714.794211
 20
31.283644
 42
-0.001292
  0
VERTEX
  8
0
 10
642.690991
 20
31.127650
 42
-0.000094
  0
VERTEX
  8
0
 10
443.857589
 20
31.248436
 42
0.000000
  0
VERTEX
  8
0
 10
127.500000
 20
31.500000
 42
0.000000
  0
VERTEX
  8
0
 10
127.244556
 20
119.150072
 42
0.000000
  0
VERTEX
  8
0
 10
126.989113
 20
206.800144
 42
0.000000
  0
VERTEX
  8
0
 10
124.186854
 20
209.799972
 42
0.128946
  0
VERTEX
  8
0
 10
118.178356
 20
213.591813
 42
0.075428
  0
VERTEX
  8
0
 10
109.717944
 20
214.921681
 42
0.070947
  0
VERTEX
  8
0
 10
100.675023
 20
213.681300
 42
0.085408
  0
VERTEX
  8
0
 10
92.953355
 20
209.966786
 42
0.065322
  0
VERTEX
  8
0
 10
90.202187
 20
207.407733
 42
0.023557
  0
VERTEX
  8
0
 10
86.987934
 20
203.126474
 42
0.007717
  0
VERTEX
  8
0
 10
81.563562
 20
194.873370
 42
0.000473
  0
VERTEX
  8
0
 10
65.792691
 20
170.000000
 42
-0.000025
  0
VERTEX
  8
0
 10
58.256271
 20
158.090190
 42
-0.000010
  0
VERTEX
  8
0
 10
48.150102
 20
142.121875
 42
-0.000010
  0
VERTEX
  8
0
 10
37.361004
 20
125.076059
 42
-0.000014
  0
VERTEX
  8
0
 10
27.501146
 20
109.500000
 42
0.000011
  0
VERTEX
  8
0
 10
18.596411
 20
95.432968
 42
0.000015
  0
VERTEX
  8
0
 10
10.705419
 20
82.965936
 42
0.000008
  0
VERTEX
  8
0
 10
4.021739
 20
72.405247
 42
0.000240
  0
VERTEX
  8
0
 10
2.326979
 20
69.724461
 42
0.000000
  0
VERTEX
  8
0
 10
-0.057333
 20
65.948923
 42
0.000000
  0
VERTEX
  8
0
 10
15.626060
 20
66.224461
 42
0.000000
  0
VERTEX
  8
0
 10
31.309453
 20
66.500000
 42
0.000000
  0
VERTEX
  8
0
 10
39.074973
 20
78.801439
 42
-0.001551
  0
VERTEX
  8
0
 10
42.137268
 20
83.619275
 42
-0.002155
  0
VERTEX
  8
0
 10
44.912517
 20
87.914846
 42
-0.001323
  0
VERTEX
  8
0
 10
47.272976
 20
91.513235
 42
-0.027385
  0
VERTEX
  8
0
 10
48.042691
 20
92.551439
 42
-0.190549
  0
VERTEX
  8
0
 10
49.483780
 20
93.341499
 42
-0.017062
  0
VERTEX
  8
0
 10
53.671810
 20
93.722766
 42
-0.012092
  0
VERTEX
  8
0
 10
60.537280
 20
93.945867
 42
-0.002076
  0
VERTEX
  8
0
 10
73.577942
 20
94.000000
 42
0.000000
  0
VERTEX
  8
0
 10
97.910995
 20
94.000000
 42
0.000000
  0
VERTEX
  8
0
 10
98.205498
 20
55.750000
 42
0.000896
  0
VERTEX
  8
0
 10
98.439336
 20
31.115204
 42
0.011993
  0
VERTEX
  8
0
 10
98.758377
 20
22.073021
 42
0.034164
  0
VERTEX
  8
0
 10
99.405956
 20
17.023729
 42
0.073936
  0
VERTEX
  8
0
 10
100.720978
 20
13.346727
 42
0.031188
  0
VERTEX
  8
0
 10
101.842096
 20
11.532087
 42
0.018376
  0
VERTEX
  8
0
 10
103.390324
 20
9.506121
 42
0.018342
  0
VERTEX
  8
0
 10
105.092536
 20
7.588455
 42
0.029707
  0
VERTEX
  8
0
 10
106.689294
 20
6.104580
 42
0.154464
  0
VERTEX
  8
0
 10
117.179603
 20
1.879680
 42
0.014850
  0
VERTEX
  8
0
 10
145.002641
 20
0.580339
 42
0.004320
  0
VERTEX
  8
0
 10
201.614903
 20
0.108804
 42
0.000115
  0
VERTEX
  8
0
 10
452.025849
 20
0.244084
 42
0.000000
  0
VERTEX
  8
0
 10
784.500000
 20
0.500000
 42
0.000000
  0
VERTEX
  8
0
 10
788.692068
 20
2.740769
 42
0.088770
  0
VERTEX
  8
0
 10
794.472745
 20
7.301376
 42
0.086383
  0
VERTEX
  8
0
 10
798.379045
 20
13.624057
 42
0.086712
  0
VERTEX
  8
0
 10
799.909656
 20
20.873021
 42
0.090376
  0
VERTEX
  8
0
 10
798.853037
 20
28.100777
 42
0.050574
  0
VERTEX
  8
0
 10
796.983388
 20
32.215564
 42
0.005900
  0
VERTEX
  8
0
 10
791.789029
 20
40.893936
 42
0.002867
  0
VERTEX
  8
0
 10
782.107686
 20
56.443554
 42
0.000230
  0
VERTEX
  8
0
 10
756.312900
 20
97.307475
 42
-0.000854
  0
VERTEX
  8
0
 10
745.457788
 20
114.551738
 42
-0.001394
  0
VERTEX
  8
0
 10
736.316914
 20
129.218649
 42
-0.000147
  0
VERTEX
  8
0
 10
728.191679
 20
142.345869
 42
-0.139380
  0
VERTEX
  8
0
 10
728.000000
 20
143.020122
 42
-0.138444
  0
VERTEX
  8
0
 10
728.188996
 20
143.689611
 42
-0.000254
  0
VERTEX
  8
0
 10
734.266285
 20
153.584435
 42
-0.001834
  0
VERTEX
  8
0
 10
741.153729
 20
164.694006
 42
-0.001132
  0
VERTEX
  8
0
 10
749.332033
 20
177.712648
 42
0.000429
  0
VERTEX
  8
0
 10
757.594414
 20
190.824181
 42
0.000652
  0
VERTEX
  8
0
 10
764.751206
 20
202.235903
 42
0.000233
  0
VERTEX
  8
0
 10
770.906764
 20
212.089813
 42
0.016716
  0
VERTEX
  8
0
 10
771.867216
 20
213.750000
 42
0.000000
  0
VERTEX
  8
0
 10
773.070368
 20
216.000000
 42
0.000000
  0
VERTEX
  8
0
 10
754.724848
 20
216.000000
 42
0.000000
  0
VERTEX
  8
0
 10
736.379329
 20
216.000000
 42
0.000000
  0
VERTEX
  8
0
 10
730.569476
 20
206.750000
 42
0.000320
  0
VERTEX
  8
0
 10
727.803205
 20
202.339493
 42
0.000149
  0
VERTEX
  8
0
 10
724.225011
 20
196.622548
 42
0.000148
  0
VERTEX
  8
0
 10
720.475375
 20
190.623755
 42
0.000207
  0
VERTEX
  8
0
 10
717.129812
 20
185.262931
 42
-0.002742
  0
VERTEX
  8
0
 10
714.168671
 20
180.571203
 42
-0.004444
  0
VERTEX
  8
0
 10
711.594382
 20
176.619409
 42
-0.000938
  0
VERTEX
  8
0
 10
709.305083
 20
173.186485
 42
-0.248255
  0
VERTEX
  8
0
 10
709.000000
 20
173.022144
 42
-0.255790
  0
VERTEX
  8
0
 10
708.690263
 20
173.188711
 42
-0.000316
  0
VERTEX
  8
0
 10
704.700833
 20
179.332437
 42
-0.002584
  0
VERTEX
  8
0
 10
700.253144
 20
186.269654
 42
-0.001574
  0
VERTEX
  8
0
 10
695.066664
 20
194.509213
 42
0.000000
  0
VERTEX
  8
0
 10
681.633329
 20
216.000000
 42
0.000000
  0
VERTEX
  8
0
 10
663.316664
 20
216.000000
 42
0.002524
  0
VERTEX
  8
0
 10
656.293171
 20
215.964546
 42
0.004208
  0
VERTEX
  8
0
 10
650.380520
 20
215.855080
 42
0.000712
  0
VERTEX
  8
0
 10
645.195467
 20
215.708032
 42
0.405519
  0
SEQEND
  0
POLYLINE
  8
0
 66
1
 70
1
  0
VERTEX
  8
0
 10
98.000000
 20
143.500000
 42
0.000000
  0
VERTEX
  8
0
 10
98.000000
 20
117.000000
 42
0.000000
  0
VERTEX
  8
0
 10
81.000000
 20
117.000000
 42
-0.002804
  0
VERTEX
  8
0
 10
74.481390
 20
117.036561
 42
-0.004675
  0
VERTEX
  8
0
 10
68.993750
 20
117.149440
 42
-0.000879
  0
VERTEX
  8
0
 10
64.200604
 20
117.301307
 42
-0.404456
  0
VERTEX
  8
0
 10
64.000000
 20
117.508732
 42
-0.139768
  0
VERTEX
  8
0
 10
64.107645
 20
117.886293
 42
-0.000187
  0
VERTEX
  8
0
 10
68.154710
 20
124.401397
 42
-0.001578
  0
VERTEX
  8
0
 10
72.721121
 20
131.694987
 42
-0.000970
  0
VERTEX
  8
0
 10
78.143693
 20
140.258732
 42
0.000047
  0
VERTEX
  8
0
 10
83.733596
 20
149.050797
 42
0.000062
  0
VERTEX
  8
0
 10
88.828526
 20
157.068190
 42
0.000044
  0
VERTEX
  8
0
 10
93.098776
 20
163.791019
 42
0.000601
  0
VERTEX
  8
0
 10
94.656238
 20
166.250000
 42
-0.008680
  0
VERTEX
  8
0
 10
95.599346
 20
167.687111
 42
-0.013205
  0
VERTEX
  8
0
 10
96.472429
 20
168.898438
 42
-0.007782
  0
VERTEX
  8
0
 10
97.234914
 20
169.867813
 42
-0.225913
  0
VERTEX
  8
0
 10
97.512545
 20
170.000000
 42
-0.408448
  0
VERTEX
  8
0
 10
97.712165
 20
169.804279
 42
-0.000333
  0
VERTEX
  8
0
 10
97.856810
 20
162.215625
 42
-0.002874
  0
VERTEX
  8
0
 10
97.964971
 20
153.661417
 42
-0.001724
  0
SEQEND
  0
POLYLINE
  8
0
 66
1
 70
1
  0
VERTEX
  8
0
 10
378.000000
 20
213.528936
 42
0.028778
  0
VERTEX
  8
0
 10
376.042354
 20
212.770258
 42
0.018796
  0
VERTEX
  8
0
 10
373.876694
 20
211.684168
 42
0.018916
  0
VERTEX
  8
0
 10
371.838633
 20
210.461756
 42
0.033998
  0
VERTEX
  8
0
 10
370.282363
 20
209.288307
 42
0.071719
  0
VERTEX
  8
0
 10
367.060887
 20
205.567295
 42
0.000141
  0
VERTEX
  8
0
 10
324.461969
 20
139.120986
 42
0.000199
  0
VERTEX
  8
0
 10
282.402465
 20
73.417828
 42
0.049843
  0
VERTEX
  8
0
 10
279.260443
 20
67.223322
 42
0.466536
  0
VERTEX
  8
0
 10
279.617227
 20
66.575219
 42
0.031808
  0
VERTEX
  8
0
 10
281.987685
 20
66.263066
 42
0.018120
  0
VERTEX
  8
0
 10
286.203728
 20
66.131898
 42
0.003230
  0
VERTEX
  8
0
 10
294.088586
 20
66.223322
 42
0.000000
  0
VERTEX
  8
0
 10
309.411624
 20
66.500000
 42
0.000000
  0
VERTEX
  8
0
 10
318.037240
 20
80.000000
 42
0.000000
  0
VERTEX
  8
0
 10
326.662857
 20
93.500000
 42
0.000000
  0
VERTEX
  8
0
 10
351.331429
 20
93.767470
 42
0.000000
  0
VERTEX
  8
0
 10
376.000000
 20
94.034939
 42
0.000000
  0
VERTEX
  8
0
 10
376.000000
 20
80.017470
 42
0.000000
  0
VERTEX
  8
0
 10
376.000000
 20
66.000000
 42
0.000000
  0
VERTEX
  8
0
 10
391.000000
 20
66.000000
 42
0.000000
  0
VERTEX
  8
0
 10
406.000000
 20
66.000000
 42
0.000000
  0
VERTEX
  8
0
 10
405.996262
 20
135.250000
 42
0.000450
  0
VERTEX
  8
0
 10
405.954091
 20
179.482882
 42
0.006284
  0
VERTEX
  8
0
 10
405.724396
 20
195.410322
 42
0.014169
  0
VERTEX
  8
0
 10
405.248626
 20
204.001360
 42
0.116495
  0
VERTEX
  8
0
 10
404.040484
 20
207.701451
 42
0.041700
  0
VERTEX
  8
0
 10
403.054355
 20
209.051405
 42
0.026111
  0
VERTEX
  8
0
 10
401.696521
 20
210.461671
 42
0.026139
  0
VERTEX
  8
0
 10
400.202882
 20
211.719394
 42
0.042612
  0
VERTEX
  8
0
 10
398.802196
 20
212.602288
 42
0.076786
  0
VERTEX
  8
0
 10
394.710136
 20
213.976449
 42
0.031559
  0
VERTEX
  8
0
 10
388.874964
 20
214.606822
 42
0.031621
  0
VERTEX
  8
0
 10
382.832859
 20
214.493796
 42
0.057629
  0
SEQEND
  0
POLYLINE
  8
0
 66
1
 70
1
  0
VERTEX
  8
0
 10
376.000000
 20
143.500000
 42
0.000000
  0
VERTEX
  8
0
 10
376.000000
 20
117.000000
 42
0.000000
  0
VERTEX
  8
0
 10
359.666667
 20
117.000000
 42
-0.003239
  0
VERTEX
  8
0
 10
353.364851
 20
117.040825
 42
-0.005127
  0
VERTEX
  8
0
 10
347.965075
 20
117.166175
 42
-0.001481
  0
VERTEX
  8
0
 10
343.291602
 20
117.336476
 42
-0.188696
  0
VERTEX
  8
0
 10
342.767632
 20
117.565702
 42
-0.349422
  0
VERTEX
  8
0
 10
342.672352
 20
118.404700
 42
-0.000156
  0
VERTEX
  8
0
 10
358.689027
 20
143.977175
 42
-0.000179
  0
VERTEX
  8
0
 10
374.683234
 20
169.475760
 42
-0.258064
  0
VERTEX
  8
0
 10
375.631307
 20
170.000000
 42
-0.409922
  0
VERTEX
  8
0
 10
375.782555
 20
169.850956
 42
-0.000191
  0
VERTEX
  8
0
 10
375.891696
 20
162.215625
 42
-0.002174
  0
VERTEX
  8
0
 10
375.973506
 20
153.661431
 42
-0.001304
  0
SEQEND
  0
ENDSEC
  0
EOF
